<?xml version="1.0" encoding="UTF-8" standalone="no"?>
<svg
   xmlns:dc="http://purl.org/dc/elements/1.1/"
   xmlns:cc="http://creativecommons.org/ns#"
   xmlns:rdf="http://www.w3.org/1999/02/22-rdf-syntax-ns#"
   xmlns:svg="http://www.w3.org/2000/svg"
   xmlns="http://www.w3.org/2000/svg"
   id="svg4498"
   version="1.1"
   viewBox="0 0 30 30"
   height="30mm"
   width="30mm">
  <defs
     id="defs4492" />
  <metadata
     id="metadata4495">
    <rdf:RDF>
      <cc:Work
         rdf:about="">
        <dc:format>image/svg+xml</dc:format>
        <dc:type
           rdf:resource="http://purl.org/dc/dcmitype/StillImage" />
        <dc:title></dc:title>
      </cc:Work>
    </rdf:RDF>
  </metadata>
  <g
     transform="translate(0,-267)"
     id="layer1">
    <circle
       r="14"
       cy="282"
       cx="15"
       id="path5043"
       style="fill:#6f116f;fill-opacity:1;stroke:none;stroke-width:3.9953866;stroke-miterlimit:4;stroke-dasharray:none;stroke-opacity:1" />
    <flowRoot
       style="fill:black;fill-opacity:1;stroke:none;font-family:sans-serif;font-style:normal;font-weight:normal;font-size:40px;line-height:1.25;letter-spacing:0px;word-spacing:0px;-inkscape-font-specification:sans-serif;font-stretch:normal;font-variant:normal"
       id="flowRoot5049"
       xml:space="preserve"><flowRegion
         id="flowRegion5051"><rect
           y="10.528683"
           x="-66.25"
           height="46.607143"
           width="39.464287"
           id="rect5053" /></flowRegion><flowPara
         id="flowPara5055"></flowPara></flowRoot>    <g
       transform="matrix(2.4,0,0,2.4,43.215754,-365.56431)"
       id="text5059"
       style="font-style:normal;font-variant:normal;font-weight:normal;font-stretch:normal;font-size:10.58333302px;line-height:1.25;font-family:'Franklin Gothic Heavy';-inkscape-font-specification:'Franklin Gothic Heavy, ';letter-spacing:0px;word-spacing:0px;fill:#ffffff;fill-opacity:1;stroke:none;stroke-width:0.26458332"
       aria-label="U">
      <path
         id="path5061"
         style="fill:#ffffff;fill-opacity:1;stroke-width:0.26458332"
         d="m -8.9219011,266.11984 0.033409,4.73837 c 0.00624,0.88536 -0.1629758,1.14391 -0.6782635,1.67494 -0.4882194,0.4331 -1.3533004,0.74904 -2.1973494,0.74904 -0.888835,0 -1.937779,-0.21945 -2.478659,-0.59152 -0.537435,-0.37207 -0.806152,-0.9784 -0.806152,-1.81901 v -4.78523 h 2.201416 v 4.53202 c 0,0.33762 0.05392,0.61735 0.195169,0.77238 0.144694,0.15503 0.485483,0.21585 0.798987,0.21585 0.340666,-0.0116 0.57102,0.008 0.817849,-0.19208 0.21311,-0.17248 0.243245,-0.37187 0.229696,-0.78162 l -0.0167,-4.51314 z" />
    </g>
    <ellipse
       ry="0.91873902"
       rx="1.1191912"
       cy="288.79816"
       cx="23.302563"
       id="path5064"
       style="fill:#ffffff;fill-opacity:1;stroke:none;stroke-width:2.0999999;stroke-miterlimit:4;stroke-dasharray:none;stroke-opacity:1" />
  </g>
</svg>
